<mxfile host="65bd71144e">
    <diagram id="o0-yE4R957Eu6GbSJKNv" name="factory Method">
        <mxGraphModel dx="407" dy="486" grid="1" gridSize="10" guides="1" tooltips="1" connect="1" arrows="1" fold="1" page="1" pageScale="1" pageWidth="850" pageHeight="1100" math="0" shadow="0">
            <root>
                <mxCell id="0"/>
                <mxCell id="1" parent="0"/>
                <mxCell id="2" value="Client/App" style="rounded=0;whiteSpace=wrap;html=1;" parent="1" vertex="1">
                    <mxGeometry x="160" y="60" width="120" height="60" as="geometry"/>
                </mxCell>
                <mxCell id="5" value="" style="endArrow=classic;html=1;" parent="1" edge="1">
                    <mxGeometry width="50" height="50" relative="1" as="geometry">
                        <mxPoint x="219.5" y="120" as="sourcePoint"/>
                        <mxPoint x="219.5" y="170" as="targetPoint"/>
                    </mxGeometry>
                </mxCell>
                <mxCell id="6" value="Logger Factory&lt;br&gt;" style="rounded=0;whiteSpace=wrap;html=1;" parent="1" vertex="1">
                    <mxGeometry x="160" y="170" width="120" height="60" as="geometry"/>
                </mxCell>
                <mxCell id="7" value="" style="endArrow=none;html=1;" parent="1" edge="1">
                    <mxGeometry width="50" height="50" relative="1" as="geometry">
                        <mxPoint x="219.5" y="290" as="sourcePoint"/>
                        <mxPoint x="219.5" y="230" as="targetPoint"/>
                    </mxGeometry>
                </mxCell>
                <mxCell id="8" value="" style="endArrow=none;html=1;" parent="1" edge="1">
                    <mxGeometry width="50" height="50" relative="1" as="geometry">
                        <mxPoint x="220" y="290" as="sourcePoint"/>
                        <mxPoint x="290" y="290" as="targetPoint"/>
                    </mxGeometry>
                </mxCell>
                <mxCell id="9" value="" style="endArrow=none;html=1;" parent="1" edge="1">
                    <mxGeometry width="50" height="50" relative="1" as="geometry">
                        <mxPoint x="150" y="290" as="sourcePoint"/>
                        <mxPoint x="220" y="290" as="targetPoint"/>
                    </mxGeometry>
                </mxCell>
                <mxCell id="10" value="" style="endArrow=classic;html=1;" parent="1" edge="1">
                    <mxGeometry width="50" height="50" relative="1" as="geometry">
                        <mxPoint x="150" y="290" as="sourcePoint"/>
                        <mxPoint x="150" y="320" as="targetPoint"/>
                    </mxGeometry>
                </mxCell>
                <mxCell id="11" value="" style="endArrow=classic;html=1;" parent="1" edge="1">
                    <mxGeometry width="50" height="50" relative="1" as="geometry">
                        <mxPoint x="290" y="290" as="sourcePoint"/>
                        <mxPoint x="290" y="320" as="targetPoint"/>
                    </mxGeometry>
                </mxCell>
                <mxCell id="12" value="Production Logger" style="rounded=0;whiteSpace=wrap;html=1;" parent="1" vertex="1">
                    <mxGeometry x="40" y="320" width="130" height="60" as="geometry"/>
                </mxCell>
                <mxCell id="13" value="Development Logger" style="rounded=0;whiteSpace=wrap;html=1;" parent="1" vertex="1">
                    <mxGeometry x="270" y="320" width="130" height="60" as="geometry"/>
                </mxCell>
            </root>
        </mxGraphModel>
    </diagram>
    <diagram id="wHayFWKD-CwvCVJunfBV" name="builder Pattern">
        <mxGraphModel dx="407" dy="486" grid="1" gridSize="10" guides="1" tooltips="1" connect="1" arrows="1" fold="1" page="1" pageScale="1" pageWidth="850" pageHeight="1100" math="0" shadow="0">
            <root>
                <mxCell id="mLqBqtTbFhqudTTmzgpJ-0"/>
                <mxCell id="mLqBqtTbFhqudTTmzgpJ-1" parent="mLqBqtTbFhqudTTmzgpJ-0"/>
                <mxCell id="mLqBqtTbFhqudTTmzgpJ-2" value="App&lt;br&gt;" style="rounded=0;whiteSpace=wrap;html=1;" parent="mLqBqtTbFhqudTTmzgpJ-1" vertex="1">
                    <mxGeometry x="100" y="60" width="120" height="60" as="geometry"/>
                </mxCell>
                <mxCell id="mLqBqtTbFhqudTTmzgpJ-3" value="" style="endArrow=none;html=1;" parent="mLqBqtTbFhqudTTmzgpJ-1" edge="1">
                    <mxGeometry width="50" height="50" relative="1" as="geometry">
                        <mxPoint x="159.5" y="180" as="sourcePoint"/>
                        <mxPoint x="159.5" y="120" as="targetPoint"/>
                    </mxGeometry>
                </mxCell>
                <mxCell id="mLqBqtTbFhqudTTmzgpJ-4" value="" style="endArrow=none;html=1;" parent="mLqBqtTbFhqudTTmzgpJ-1" edge="1">
                    <mxGeometry width="50" height="50" relative="1" as="geometry">
                        <mxPoint x="80" y="180" as="sourcePoint"/>
                        <mxPoint x="250" y="180" as="targetPoint"/>
                    </mxGeometry>
                </mxCell>
                <mxCell id="mLqBqtTbFhqudTTmzgpJ-5" value="" style="endArrow=classic;html=1;" parent="mLqBqtTbFhqudTTmzgpJ-1" edge="1">
                    <mxGeometry width="50" height="50" relative="1" as="geometry">
                        <mxPoint x="250" y="180" as="sourcePoint"/>
                        <mxPoint x="250" y="240" as="targetPoint"/>
                    </mxGeometry>
                </mxCell>
                <mxCell id="mLqBqtTbFhqudTTmzgpJ-6" value="" style="endArrow=classic;html=1;" parent="mLqBqtTbFhqudTTmzgpJ-1" edge="1">
                    <mxGeometry width="50" height="50" relative="1" as="geometry">
                        <mxPoint x="80" y="180" as="sourcePoint"/>
                        <mxPoint x="80" y="240" as="targetPoint"/>
                    </mxGeometry>
                </mxCell>
                <mxCell id="mLqBqtTbFhqudTTmzgpJ-7" value="DirScrapper" style="rounded=0;whiteSpace=wrap;html=1;" parent="mLqBqtTbFhqudTTmzgpJ-1" vertex="1">
                    <mxGeometry x="30" y="240" width="120" height="60" as="geometry"/>
                </mxCell>
                <mxCell id="mLqBqtTbFhqudTTmzgpJ-8" value="ScrapperMethods" style="rounded=0;whiteSpace=wrap;html=1;" parent="mLqBqtTbFhqudTTmzgpJ-1" vertex="1">
                    <mxGeometry x="220" y="240" width="120" height="60" as="geometry"/>
                </mxCell>
                <mxCell id="mLqBqtTbFhqudTTmzgpJ-9" value="" style="endArrow=classic;html=1;entryX=0;entryY=0.5;entryDx=0;entryDy=0;" parent="mLqBqtTbFhqudTTmzgpJ-1" source="mLqBqtTbFhqudTTmzgpJ-7" target="mLqBqtTbFhqudTTmzgpJ-8" edge="1">
                    <mxGeometry width="50" height="50" relative="1" as="geometry">
                        <mxPoint x="180" y="270" as="sourcePoint"/>
                        <mxPoint x="230" y="220" as="targetPoint"/>
                    </mxGeometry>
                </mxCell>
                <mxCell id="mLqBqtTbFhqudTTmzgpJ-10" value="" style="endArrow=none;html=1;" parent="mLqBqtTbFhqudTTmzgpJ-1" edge="1">
                    <mxGeometry width="50" height="50" relative="1" as="geometry">
                        <mxPoint x="279.5" y="360" as="sourcePoint"/>
                        <mxPoint x="279.5" y="300" as="targetPoint"/>
                    </mxGeometry>
                </mxCell>
                <mxCell id="mLqBqtTbFhqudTTmzgpJ-11" value="" style="endArrow=none;html=1;" parent="mLqBqtTbFhqudTTmzgpJ-1" edge="1">
                    <mxGeometry width="50" height="50" relative="1" as="geometry">
                        <mxPoint x="200" y="360" as="sourcePoint"/>
                        <mxPoint x="370" y="360" as="targetPoint"/>
                    </mxGeometry>
                </mxCell>
                <mxCell id="mLqBqtTbFhqudTTmzgpJ-12" value="" style="endArrow=classic;html=1;" parent="mLqBqtTbFhqudTTmzgpJ-1" edge="1">
                    <mxGeometry width="50" height="50" relative="1" as="geometry">
                        <mxPoint x="200" y="360" as="sourcePoint"/>
                        <mxPoint x="200" y="420" as="targetPoint"/>
                    </mxGeometry>
                </mxCell>
                <mxCell id="mLqBqtTbFhqudTTmzgpJ-13" value="" style="endArrow=classic;html=1;" parent="mLqBqtTbFhqudTTmzgpJ-1" edge="1">
                    <mxGeometry width="50" height="50" relative="1" as="geometry">
                        <mxPoint x="370" y="360" as="sourcePoint"/>
                        <mxPoint x="370" y="420" as="targetPoint"/>
                    </mxGeometry>
                </mxCell>
                <mxCell id="mLqBqtTbFhqudTTmzgpJ-14" value="TextFile" style="rounded=0;whiteSpace=wrap;html=1;" parent="mLqBqtTbFhqudTTmzgpJ-1" vertex="1">
                    <mxGeometry x="140" y="420" width="120" height="60" as="geometry"/>
                </mxCell>
                <mxCell id="mLqBqtTbFhqudTTmzgpJ-15" value="JSONFile" style="rounded=0;whiteSpace=wrap;html=1;" parent="mLqBqtTbFhqudTTmzgpJ-1" vertex="1">
                    <mxGeometry x="310" y="420" width="120" height="60" as="geometry"/>
                </mxCell>
            </root>
        </mxGraphModel>
    </diagram>
    <diagram id="nXdi7vv8FaqwINzFK77J" name="factory-method">
        <mxGraphModel dx="407" dy="486" grid="1" gridSize="10" guides="1" tooltips="1" connect="1" arrows="1" fold="1" page="1" pageScale="1" pageWidth="850" pageHeight="1100" math="0" shadow="0">
            <root>
                <mxCell id="f3AF6Br6NbCOZS2NPLmf-0"/>
                <mxCell id="f3AF6Br6NbCOZS2NPLmf-1" parent="f3AF6Br6NbCOZS2NPLmf-0"/>
                <mxCell id="2V8bZpoE3Uj-pWCB2qM4-0" value="App&lt;br&gt;" style="rounded=0;whiteSpace=wrap;html=1;" vertex="1" parent="f3AF6Br6NbCOZS2NPLmf-1">
                    <mxGeometry x="100" y="60" width="120" height="60" as="geometry"/>
                </mxCell>
                <mxCell id="2V8bZpoE3Uj-pWCB2qM4-1" value="" style="endArrow=none;html=1;" edge="1" parent="f3AF6Br6NbCOZS2NPLmf-1">
                    <mxGeometry width="50" height="50" relative="1" as="geometry">
                        <mxPoint x="159.5" y="180" as="sourcePoint"/>
                        <mxPoint x="159.5" y="120" as="targetPoint"/>
                    </mxGeometry>
                </mxCell>
                <mxCell id="2V8bZpoE3Uj-pWCB2qM4-2" value="" style="endArrow=none;html=1;" edge="1" parent="f3AF6Br6NbCOZS2NPLmf-1">
                    <mxGeometry width="50" height="50" relative="1" as="geometry">
                        <mxPoint x="80" y="180" as="sourcePoint"/>
                        <mxPoint x="250" y="180" as="targetPoint"/>
                    </mxGeometry>
                </mxCell>
                <mxCell id="2V8bZpoE3Uj-pWCB2qM4-3" value="" style="endArrow=classic;html=1;" edge="1" parent="f3AF6Br6NbCOZS2NPLmf-1">
                    <mxGeometry width="50" height="50" relative="1" as="geometry">
                        <mxPoint x="250" y="180" as="sourcePoint"/>
                        <mxPoint x="250" y="240" as="targetPoint"/>
                    </mxGeometry>
                </mxCell>
                <mxCell id="2V8bZpoE3Uj-pWCB2qM4-4" value="" style="endArrow=classic;html=1;" edge="1" parent="f3AF6Br6NbCOZS2NPLmf-1">
                    <mxGeometry width="50" height="50" relative="1" as="geometry">
                        <mxPoint x="80" y="180" as="sourcePoint"/>
                        <mxPoint x="80" y="240" as="targetPoint"/>
                    </mxGeometry>
                </mxCell>
                <mxCell id="2V8bZpoE3Uj-pWCB2qM4-5" value="AbstractDivScrapper" style="rounded=0;whiteSpace=wrap;html=1;" vertex="1" parent="f3AF6Br6NbCOZS2NPLmf-1">
                    <mxGeometry x="30" y="240" width="120" height="60" as="geometry"/>
                </mxCell>
                <mxCell id="2V8bZpoE3Uj-pWCB2qM4-6" value="ScrapperMethods" style="rounded=0;whiteSpace=wrap;html=1;" vertex="1" parent="f3AF6Br6NbCOZS2NPLmf-1">
                    <mxGeometry x="220" y="240" width="120" height="60" as="geometry"/>
                </mxCell>
                <mxCell id="2V8bZpoE3Uj-pWCB2qM4-7" value="" style="endArrow=classic;html=1;" edge="1" parent="f3AF6Br6NbCOZS2NPLmf-1" source="2V8bZpoE3Uj-pWCB2qM4-6" target="2V8bZpoE3Uj-pWCB2qM4-5">
                    <mxGeometry width="50" height="50" relative="1" as="geometry">
                        <mxPoint x="210" y="254" as="sourcePoint"/>
                        <mxPoint x="170" y="253.64" as="targetPoint"/>
                    </mxGeometry>
                </mxCell>
                <mxCell id="2V8bZpoE3Uj-pWCB2qM4-8" value="" style="endArrow=none;html=1;" edge="1" parent="f3AF6Br6NbCOZS2NPLmf-1">
                    <mxGeometry width="50" height="50" relative="1" as="geometry">
                        <mxPoint x="279.5" y="360" as="sourcePoint"/>
                        <mxPoint x="279.5" y="300" as="targetPoint"/>
                    </mxGeometry>
                </mxCell>
                <mxCell id="2V8bZpoE3Uj-pWCB2qM4-9" value="" style="endArrow=none;html=1;" edge="1" parent="f3AF6Br6NbCOZS2NPLmf-1">
                    <mxGeometry width="50" height="50" relative="1" as="geometry">
                        <mxPoint x="200" y="360" as="sourcePoint"/>
                        <mxPoint x="370" y="360" as="targetPoint"/>
                    </mxGeometry>
                </mxCell>
                <mxCell id="2V8bZpoE3Uj-pWCB2qM4-10" value="" style="endArrow=classic;html=1;" edge="1" parent="f3AF6Br6NbCOZS2NPLmf-1">
                    <mxGeometry width="50" height="50" relative="1" as="geometry">
                        <mxPoint x="200" y="360" as="sourcePoint"/>
                        <mxPoint x="200" y="420" as="targetPoint"/>
                    </mxGeometry>
                </mxCell>
                <mxCell id="2V8bZpoE3Uj-pWCB2qM4-11" value="" style="endArrow=classic;html=1;" edge="1" parent="f3AF6Br6NbCOZS2NPLmf-1">
                    <mxGeometry width="50" height="50" relative="1" as="geometry">
                        <mxPoint x="370" y="360" as="sourcePoint"/>
                        <mxPoint x="370" y="420" as="targetPoint"/>
                    </mxGeometry>
                </mxCell>
                <mxCell id="2V8bZpoE3Uj-pWCB2qM4-12" value="TextFile" style="rounded=0;whiteSpace=wrap;html=1;" vertex="1" parent="f3AF6Br6NbCOZS2NPLmf-1">
                    <mxGeometry x="140" y="420" width="120" height="60" as="geometry"/>
                </mxCell>
                <mxCell id="2V8bZpoE3Uj-pWCB2qM4-13" value="JSONFile" style="rounded=0;whiteSpace=wrap;html=1;" vertex="1" parent="f3AF6Br6NbCOZS2NPLmf-1">
                    <mxGeometry x="310" y="420" width="120" height="60" as="geometry"/>
                </mxCell>
            </root>
        </mxGraphModel>
    </diagram>
</mxfile>